<svg xmlns="http://www.w3.org/2000/svg" viewBox="0 0 64 64">
  <defs>
    <linearGradient id="g" x1="10" y1="8" x2="56" y2="58" gradientUnits="userSpaceOnUse">
      <stop stop-color="#5CF1FF"/>
      <stop offset=".35" stop-color="#68FF8D"/>
      <stop offset=".64" stop-color="#FFD547"/>
      <stop offset="1" stop-color="#FF4FBF"/>
    </linearGradient>
    <filter id="s" x="-30%" y="-30%" width="160%" height="160%">
      <feDropShadow dx="0" dy="3" stdDeviation="3" flood-color="#000" flood-opacity=".55"/>
    </filter>
  </defs>
  <rect width="64" height="64" rx="18" fill="#090713"/>
  <path d="M19 9h27c7 0 10 5 9 12l-4 24c-1 7-6 10-13 10H19C12 55 8 50 9 43l4-24c1-7 5-10 6-10Z" fill="url(#g)" filter="url(#s)"/>
  <circle cx="26" cy="29" r="5" fill="#090713"/>
  <circle cx="42" cy="29" r="5" fill="#090713"/>
  <path d="M27 42c3 3 10 3 13 0" fill="none" stroke="#090713" stroke-width="5" stroke-linecap="round"/>
  <path d="M49 10 55 3m-1 13 8-2" stroke="#FFD547" stroke-width="4" stroke-linecap="round"/>
</svg>